<?xml version="1.0" encoding="UTF-8" standalone="no"?>
<!-- Created with Inkscape (http://www.inkscape.org/) -->

<svg
   xmlns:dc="http://purl.org/dc/elements/1.1/"
   xmlns:cc="http://creativecommons.org/ns#"
   xmlns:rdf="http://www.w3.org/1999/02/22-rdf-syntax-ns#"
   xmlns:svg="http://www.w3.org/2000/svg"
   xmlns="http://www.w3.org/2000/svg"
   xmlns:sodipodi="http://sodipodi.sourceforge.net/DTD/sodipodi-0.dtd"
   xmlns:inkscape="http://www.inkscape.org/namespaces/inkscape"
   width="800"
   height="600"
   viewBox="0 0 800.00001 600.00001"
   id="svg2"
   version="1.1"
   inkscape:version="0.91 r13725"
   sodipodi:docname="Vehicles_Racing_01.svg"
   inkscape:export-filename="D:\GameArt\Vector\Vehicles_Trucks_01.png"
   inkscape:export-xdpi="90"
   inkscape:export-ydpi="90">
  <defs
     id="defs4" />
  <sodipodi:namedview
     id="base"
     pagecolor="#ffffff"
     bordercolor="#666666"
     borderopacity="1.0"
     inkscape:pageopacity="0.0"
     inkscape:pageshadow="2"
     inkscape:zoom="0.70710678"
     inkscape:cx="394.31707"
     inkscape:cy="284.45957"
     inkscape:document-units="px"
     inkscape:current-layer="layer2"
     showgrid="false"
     units="px"
     inkscape:showpageshadow="false"
     inkscape:snap-center="false"
     inkscape:window-width="1366"
     inkscape:window-height="705"
     inkscape:window-x="-8"
     inkscape:window-y="-8"
     inkscape:window-maximized="1"
     showguides="true"
     inkscape:guide-bbox="true">
    <sodipodi:guide
       position="382.84782,-330.31989"
       orientation="0,1"
       id="guide4274" />
  </sodipodi:namedview>
  <metadata
     id="metadata7">
    <rdf:RDF>
      <cc:Work
         rdf:about="">
        <dc:format>image/svg+xml</dc:format>
        <dc:type
           rdf:resource="http://purl.org/dc/dcmitype/StillImage" />
        <dc:title></dc:title>
      </cc:Work>
    </rdf:RDF>
  </metadata>
  <g
     inkscape:groupmode="layer"
     id="layer2"
     inkscape:label="racing-car">
    <g
       id="g4355">
      <ellipse
         ry="28.874771"
         rx="31.88101"
         cy="85.305405"
         cx="396.82141"
         id="path4280"
         style="display:inline;opacity:1;fill:#c87137;fill-opacity:1;stroke:#2b0000;stroke-width:4;stroke-miterlimit:4;stroke-dasharray:none;stroke-opacity:1" />
      <path
         inkscape:transform-center-y="14.373162"
         inkscape:transform-center-x="30.10617"
         sodipodi:nodetypes="ccsc"
         inkscape:connector-curvature="0"
         id="path4282"
         d="m 370.38522,67.9472 c 7.40228,-1.4078 13.45235,-4.0832 35.43955,8.1825 -1.26799,7.9696 -11.62248,47.9865 -33.24999,31.5811 -22.39065,-16.9842 -6.72844,-36.2311 -2.18956,-39.7636 z"
         style="display:inline;fill:#999999;fill-rule:evenodd;stroke:#2b0000;stroke-width:4;stroke-linecap:butt;stroke-linejoin:miter;stroke-miterlimit:4;stroke-dasharray:none;stroke-opacity:1" />
      <path
         inkscape:transform-center-y="6.1299619"
         inkscape:transform-center-x="31.676601"
         style="display:inline;fill:#ffffff;fill-rule:evenodd;stroke:none;stroke-width:5.71231127;stroke-linecap:butt;stroke-linejoin:miter;stroke-miterlimit:4;stroke-dasharray:none;stroke-opacity:1"
         d="m 385.75056,71.0745 15.2462,7.0254 -17.59597,9.8161 c -5.91747,-11.5423 -0.14934,-12.7458 2.34977,-16.8415 z"
         id="path4284"
         inkscape:connector-curvature="0"
         sodipodi:nodetypes="cccc" />
      <path
         sodipodi:nodetypes="cccc"
         inkscape:connector-curvature="0"
         id="path4286"
         d="m 373.14786,71.2586 7.63921,-0.6305 -4.79146,7.854 c -4.94461,-3.2601 -2.92162,-5.0339 -2.84775,-7.2235 z"
         style="display:inline;fill:#ffffff;fill-rule:evenodd;stroke:none;stroke-width:5.71231127;stroke-linecap:butt;stroke-linejoin:miter;stroke-miterlimit:4;stroke-dasharray:none;stroke-opacity:1"
         inkscape:transform-center-x="11.728123"
         inkscape:transform-center-y="11.131073" />
      <ellipse
         ry="3.0062428"
         rx="3.1830802"
         cy="74.893173"
         cx="405.47226"
         id="path4288"
         style="display:inline;opacity:1;fill:#2b0000;fill-opacity:1;stroke:#2b0000;stroke-width:4;stroke-miterlimit:4;stroke-dasharray:none;stroke-opacity:1" />
      <path
         sodipodi:nodetypes="ccccccccccccccccccccc"
         inkscape:connector-curvature="0"
         id="rect4217"
         d="m 31.857143,131.32703 c 27.299546,-8.08119 56.84245,-15.4146 98.268957,-18.7868 77.99747,-3.67473 155.99493,-7.04257 233.9924,-2.32233 22.98158,-4.22829 44.95937,-8.43386 70.5698,-28.43528 l -0.10091,-24.32932 86.29222,-0.53268 c 69.3827,11.41351 127.3809,38.76532 183.45761,68.80721 l 4.57442,-13.98666 10.8735,-43.15577 -60.84732,-0.91215 -0.44762,-35.56977 c 40.17154,-9.78908 78.56835,-12.47922 113.36694,-0.77649 l 1.26269,101.41499 c -0.25115,19.39536 -11.30377,26.7891 -23.48605,32.92766 l -32.44705,29.56273 C 262.90475,184.64174 153.45528,190.34242 31.857143,195.46914 l 3,-28.07105 38.906102,-3.38832 -0.75,-24.42259 -38.508259,-2.36231 z"
         style="opacity:1;fill:#006680;fill-opacity:1;stroke:#00222b;stroke-width:5;stroke-miterlimit:4;stroke-dasharray:none;stroke-opacity:1" />
      <path
         style="opacity:1;fill:#c87137;fill-opacity:1;stroke:#28170b;stroke-width:3;stroke-miterlimit:4;stroke-dasharray:none;stroke-opacity:1"
         d="m 749.63378,165.6696 -32.44705,29.5628 c -454.28198,-10.5907 -563.73145,-4.89 -685.329587,0.2367 l 3,-28.071 c 258.378777,19.72 537.012417,-46.3603 714.776637,-1.7285 z"
         id="path4276"
         inkscape:connector-curvature="0"
         sodipodi:nodetypes="ccccc" />
      <g
         transform="matrix(1.2063018,0,0,1.2063018,46.522401,-1119.1512)"
         id="g4248"
         style="display:inline">
        <ellipse
           style="fill:#1a1a1a;fill-opacity:1;stroke:#333333;stroke-width:2;stroke-miterlimit:4;stroke-dasharray:none;stroke-opacity:1"
           id="ellipse4244"
           cx="116.08961"
           cy="1061.8022"
           rx="40.911179"
           ry="39.39595" />
        <ellipse
           ry="20.42753"
           rx="21.213203"
           cy="1061.8022"
           cx="116.08961"
           id="ellipse4246"
           style="fill:#333333;fill-opacity:1;stroke:#4d4d4d;stroke-width:2;stroke-miterlimit:4;stroke-dasharray:none;stroke-opacity:1" />
      </g>
      <g
         transform="translate(9,-720)"
         id="g4314">
        <ellipse
           ry="62.715885"
           rx="65.128036"
           cy="865.70276"
           cx="689.56152"
           id="ellipse4270"
           style="fill:#1a1a1a;fill-opacity:1;stroke:#333333;stroke-width:3.18387485;stroke-miterlimit:4;stroke-dasharray:none;stroke-opacity:1" />
        <ellipse
           style="fill:#333333;fill-opacity:1;stroke:#4d4d4d;stroke-width:3.18387485;stroke-miterlimit:4;stroke-dasharray:none;stroke-opacity:1"
           id="ellipse4272"
           cx="689.56152"
           cy="865.70276"
           rx="33.770092"
           ry="32.519348" />
      </g>
      <text
         sodipodi:linespacing="125%"
         id="text4306"
         y="134"
         x="454"
         style="font-style:normal;font-weight:normal;font-size:90px;line-height:125%;font-family:sans-serif;letter-spacing:0px;word-spacing:0px;display:inline;fill:#2b0000;fill-opacity:1;stroke:#ffffff;stroke-width:2;stroke-linecap:butt;stroke-linejoin:miter;stroke-miterlimit:4;stroke-dasharray:none;stroke-opacity:1"
         xml:space="preserve"><tspan
           style="font-style:normal;font-variant:normal;font-weight:normal;font-stretch:normal;font-family:Raavi;-inkscape-font-specification:Raavi;fill:#00222b;stroke:#ffffff;stroke-width:2;stroke-miterlimit:4;stroke-dasharray:none;stroke-opacity:1"
           y="134"
           x="454"
           id="tspan4308"
           sodipodi:role="line">43</tspan></text>
    </g>
    <g
       id="g4451">
      <ellipse
         style="display:inline;opacity:1;fill:#88aa00;fill-opacity:1;stroke:#2b0000;stroke-width:4;stroke-miterlimit:4;stroke-dasharray:none;stroke-opacity:1"
         id="ellipse4374"
         cx="396.82141"
         cy="275.30542"
         rx="31.88101"
         ry="28.874771" />
      <path
         style="display:inline;fill:#999999;fill-rule:evenodd;stroke:#2b0000;stroke-width:4;stroke-linecap:butt;stroke-linejoin:miter;stroke-miterlimit:4;stroke-dasharray:none;stroke-opacity:1"
         d="m 370.38522,257.9472 c 7.40228,-1.4078 13.45235,-4.0832 35.43955,8.1825 -1.26799,7.9696 -11.62248,47.9865 -33.24999,31.5811 -22.39065,-16.9842 -6.72844,-36.2311 -2.18956,-39.7636 z"
         id="path4376"
         inkscape:connector-curvature="0"
         sodipodi:nodetypes="ccsc"
         inkscape:transform-center-x="30.10617"
         inkscape:transform-center-y="14.373162" />
      <path
         sodipodi:nodetypes="cccc"
         inkscape:connector-curvature="0"
         id="path4378"
         d="m 385.75056,261.0745 15.2462,7.0254 -17.59597,9.8161 c -5.91747,-11.5423 -0.14934,-12.7458 2.34977,-16.8415 z"
         style="display:inline;fill:#ffffff;fill-rule:evenodd;stroke:none;stroke-width:5.71231127;stroke-linecap:butt;stroke-linejoin:miter;stroke-miterlimit:4;stroke-dasharray:none;stroke-opacity:1"
         inkscape:transform-center-x="31.676601"
         inkscape:transform-center-y="6.1299619" />
      <path
         inkscape:transform-center-y="11.131073"
         inkscape:transform-center-x="11.728123"
         style="display:inline;fill:#ffffff;fill-rule:evenodd;stroke:none;stroke-width:5.71231127;stroke-linecap:butt;stroke-linejoin:miter;stroke-miterlimit:4;stroke-dasharray:none;stroke-opacity:1"
         d="m 373.14786,261.2586 7.63921,-0.6305 -4.79146,7.854 c -4.94461,-3.2601 -2.92162,-5.0339 -2.84775,-7.2235 z"
         id="path4380"
         inkscape:connector-curvature="0"
         sodipodi:nodetypes="cccc" />
      <ellipse
         style="display:inline;opacity:1;fill:#2b0000;fill-opacity:1;stroke:#2b0000;stroke-width:4;stroke-miterlimit:4;stroke-dasharray:none;stroke-opacity:1"
         id="ellipse4382"
         cx="405.47226"
         cy="264.89319"
         rx="3.1830802"
         ry="3.0062428" />
      <path
         style="opacity:1;fill:#008033;fill-opacity:1;stroke:#002b11;stroke-width:5;stroke-miterlimit:4;stroke-dasharray:none;stroke-opacity:1"
         d="m 31.857143,321.32703 c 27.299546,-8.08119 56.84245,-15.4146 98.268957,-18.7868 77.99747,-3.67473 155.99493,-7.04257 233.9924,-2.32233 22.98158,-4.22829 44.95937,-8.43386 70.5698,-28.43528 l -0.10091,-24.32932 86.29222,-0.53268 c 69.3827,11.41351 127.3809,38.76532 183.45761,68.80721 l 4.57442,-13.98666 10.8735,-43.15577 -60.84732,-0.91215 -0.44762,-35.56977 c 40.17154,-9.78908 78.56835,-12.47922 113.36694,-0.77649 l 1.26269,101.41499 c -0.25115,19.39536 -11.30377,26.7891 -23.48605,32.92766 l -32.44705,29.56273 C 262.90475,374.64174 153.45528,380.34242 31.857143,385.46914 l 3,-28.07105 38.906102,-3.38832 -0.75,-24.42259 -38.508259,-2.36231 z"
         id="path4384"
         inkscape:connector-curvature="0"
         sodipodi:nodetypes="ccccccccccccccccccccc" />
      <path
         sodipodi:nodetypes="ccccc"
         inkscape:connector-curvature="0"
         id="path4386"
         d="m 749.63378,355.6696 -32.44705,29.5628 c -454.28198,-10.5907 -563.73145,-4.89 -685.329587,0.2367 l 3,-28.071 c 258.378777,19.72 537.012417,-46.3603 714.776637,-1.7285 z"
         style="opacity:1;fill:#88aa00;fill-opacity:1;stroke:#002b11;stroke-width:3;stroke-miterlimit:4;stroke-dasharray:none;stroke-opacity:1" />
      <g
         style="display:inline"
         id="g4388"
         transform="matrix(1.2063018,0,0,1.2063018,46.522401,-929.1512)">
        <ellipse
           ry="39.39595"
           rx="40.911179"
           cy="1061.8022"
           cx="116.08961"
           id="ellipse4390"
           style="fill:#1a1a1a;fill-opacity:1;stroke:#333333;stroke-width:2;stroke-miterlimit:4;stroke-dasharray:none;stroke-opacity:1" />
        <ellipse
           style="fill:#333333;fill-opacity:1;stroke:#4d4d4d;stroke-width:2;stroke-miterlimit:4;stroke-dasharray:none;stroke-opacity:1"
           id="ellipse4392"
           cx="116.08961"
           cy="1061.8022"
           rx="21.213203"
           ry="20.42753" />
      </g>
      <g
         id="g4394"
         transform="translate(9,-530)">
        <ellipse
           style="fill:#1a1a1a;fill-opacity:1;stroke:#333333;stroke-width:3.18387485;stroke-miterlimit:4;stroke-dasharray:none;stroke-opacity:1"
           id="ellipse4396"
           cx="689.56152"
           cy="865.70276"
           rx="65.128036"
           ry="62.715885" />
        <ellipse
           ry="32.519348"
           rx="33.770092"
           cy="865.70276"
           cx="689.56152"
           id="ellipse4398"
           style="fill:#333333;fill-opacity:1;stroke:#4d4d4d;stroke-width:3.18387485;stroke-miterlimit:4;stroke-dasharray:none;stroke-opacity:1" />
      </g>
      <text
         xml:space="preserve"
         style="font-style:normal;font-weight:normal;font-size:90px;line-height:125%;font-family:sans-serif;letter-spacing:0px;word-spacing:0px;display:inline;fill:#2b0000;fill-opacity:1;stroke:#ffffff;stroke-width:2;stroke-linecap:butt;stroke-linejoin:miter;stroke-miterlimit:4;stroke-dasharray:none;stroke-opacity:1"
         x="454"
         y="324"
         id="text4400"
         sodipodi:linespacing="125%"><tspan
           sodipodi:role="line"
           id="tspan4402"
           x="454"
           y="324"
           style="font-style:normal;font-variant:normal;font-weight:normal;font-stretch:normal;font-family:Raavi;-inkscape-font-specification:Raavi;fill:#002b11;stroke:#ffffff;stroke-width:2;stroke-miterlimit:4;stroke-dasharray:none;stroke-opacity:1">51</tspan></text>
    </g>
    <g
       id="g4483">
      <ellipse
         ry="28.874771"
         rx="31.88101"
         cy="465.30542"
         cx="396.82141"
         id="ellipse4406"
         style="display:inline;opacity:1;fill:#c83771;fill-opacity:1;stroke:#2b0000;stroke-width:4;stroke-miterlimit:4;stroke-dasharray:none;stroke-opacity:1" />
      <path
         inkscape:transform-center-y="14.373162"
         inkscape:transform-center-x="30.10617"
         sodipodi:nodetypes="ccsc"
         inkscape:connector-curvature="0"
         id="path4408"
         d="m 370.38522,447.9472 c 7.40228,-1.4078 13.45235,-4.0832 35.43955,8.1825 -1.26799,7.9696 -11.62248,47.9865 -33.24999,31.5811 -22.39065,-16.9842 -6.72844,-36.2311 -2.18956,-39.7636 z"
         style="display:inline;fill:#999999;fill-rule:evenodd;stroke:#2b0000;stroke-width:4;stroke-linecap:butt;stroke-linejoin:miter;stroke-miterlimit:4;stroke-dasharray:none;stroke-opacity:1" />
      <path
         inkscape:transform-center-y="6.1299619"
         inkscape:transform-center-x="31.676601"
         style="display:inline;fill:#ffffff;fill-rule:evenodd;stroke:none;stroke-width:5.71231127;stroke-linecap:butt;stroke-linejoin:miter;stroke-miterlimit:4;stroke-dasharray:none;stroke-opacity:1"
         d="m 385.75056,451.0745 15.2462,7.0254 -17.59597,9.8161 c -5.91747,-11.5423 -0.14934,-12.7458 2.34977,-16.8415 z"
         id="path4410"
         inkscape:connector-curvature="0"
         sodipodi:nodetypes="cccc" />
      <path
         sodipodi:nodetypes="cccc"
         inkscape:connector-curvature="0"
         id="path4412"
         d="m 373.14786,451.2586 7.63921,-0.6305 -4.79146,7.854 c -4.94461,-3.2601 -2.92162,-5.0339 -2.84775,-7.2235 z"
         style="display:inline;fill:#ffffff;fill-rule:evenodd;stroke:none;stroke-width:5.71231127;stroke-linecap:butt;stroke-linejoin:miter;stroke-miterlimit:4;stroke-dasharray:none;stroke-opacity:1"
         inkscape:transform-center-x="11.728123"
         inkscape:transform-center-y="11.131073" />
      <ellipse
         ry="3.0062428"
         rx="3.1830802"
         cy="454.89319"
         cx="405.47226"
         id="ellipse4414"
         style="display:inline;opacity:1;fill:#2b0000;fill-opacity:1;stroke:#2b0000;stroke-width:4;stroke-miterlimit:4;stroke-dasharray:none;stroke-opacity:1" />
      <path
         sodipodi:nodetypes="ccccccccccccccccccccc"
         inkscape:connector-curvature="0"
         id="path4416"
         d="m 31.857143,511.32703 c 27.299546,-8.08119 56.84245,-15.4146 98.268957,-18.7868 77.99747,-3.67473 155.99493,-7.04257 233.9924,-2.32233 22.98158,-4.22829 44.95937,-8.43386 70.5698,-28.43528 l -0.10091,-24.32932 86.29222,-0.53268 c 69.3827,11.41351 127.3809,38.76532 183.45761,68.80721 l 4.57442,-13.98666 10.8735,-43.15577 -60.84732,-0.91215 -0.44762,-35.56977 c 40.17154,-9.78908 78.56835,-12.47922 113.36694,-0.77649 l 1.26269,101.41499 c -0.25115,19.39536 -11.30377,26.7891 -23.48605,32.92766 l -32.44705,29.56273 C 262.90475,564.64174 153.45528,570.34242 31.857143,575.46914 l 3,-28.07105 38.906102,-3.38832 -0.75,-24.42259 -38.508259,-2.36231 z"
         style="opacity:1;fill:#782121;fill-opacity:1;stroke:#280b0b;stroke-width:5;stroke-miterlimit:4;stroke-dasharray:none;stroke-opacity:1" />
      <path
         style="opacity:1;fill:#c83771;fill-opacity:1;stroke:#280b0b;stroke-width:3;stroke-miterlimit:4;stroke-dasharray:none;stroke-opacity:1"
         d="m 749.63378,545.6696 -32.44705,29.5628 c -454.28198,-10.5907 -563.73145,-4.89 -685.329587,0.2367 l 3,-28.071 c 258.378777,19.72 537.012417,-46.3603 714.776637,-1.7285 z"
         id="path4418"
         inkscape:connector-curvature="0"
         sodipodi:nodetypes="ccccc" />
      <g
         transform="matrix(1.2063018,0,0,1.2063018,46.522401,-739.1512)"
         id="g4420"
         style="display:inline">
        <ellipse
           style="fill:#1a1a1a;fill-opacity:1;stroke:#333333;stroke-width:2;stroke-miterlimit:4;stroke-dasharray:none;stroke-opacity:1"
           id="ellipse4422"
           cx="116.08961"
           cy="1061.8022"
           rx="40.911179"
           ry="39.39595" />
        <ellipse
           ry="20.42753"
           rx="21.213203"
           cy="1061.8022"
           cx="116.08961"
           id="ellipse4424"
           style="fill:#333333;fill-opacity:1;stroke:#4d4d4d;stroke-width:2;stroke-miterlimit:4;stroke-dasharray:none;stroke-opacity:1" />
      </g>
      <g
         transform="translate(9,-340)"
         id="g4426">
        <ellipse
           ry="62.715885"
           rx="65.128036"
           cy="865.70276"
           cx="689.56152"
           id="ellipse4428"
           style="fill:#1a1a1a;fill-opacity:1;stroke:#333333;stroke-width:3.18387485;stroke-miterlimit:4;stroke-dasharray:none;stroke-opacity:1" />
        <ellipse
           style="fill:#333333;fill-opacity:1;stroke:#4d4d4d;stroke-width:3.18387485;stroke-miterlimit:4;stroke-dasharray:none;stroke-opacity:1"
           id="ellipse4430"
           cx="689.56152"
           cy="865.70276"
           rx="33.770092"
           ry="32.519348" />
      </g>
      <text
         sodipodi:linespacing="125%"
         id="text4432"
         y="514"
         x="454"
         style="font-style:normal;font-weight:normal;font-size:90px;line-height:125%;font-family:sans-serif;letter-spacing:0px;word-spacing:0px;display:inline;fill:#2b0000;fill-opacity:1;stroke:#ffffff;stroke-width:2;stroke-linecap:butt;stroke-linejoin:miter;stroke-miterlimit:4;stroke-dasharray:none;stroke-opacity:1"
         xml:space="preserve"><tspan
           style="font-style:normal;font-variant:normal;font-weight:normal;font-stretch:normal;font-family:Raavi;-inkscape-font-specification:Raavi;fill:#280b0b;stroke:#ffffff;stroke-width:2;stroke-miterlimit:4;stroke-dasharray:none;stroke-opacity:1"
           y="514"
           x="454"
           id="tspan4434"
           sodipodi:role="line">27</tspan></text>
    </g>
  </g>
</svg>
